# xmcd
#
# Track frame offsets: 
#        150
#        11898
#        25691
#        36386
#        46146
#        60583
#        76289
#        93189
#        104222
#        122386
#        137119
#        150208
#        161748
#        170541
#        181077
#        197288
#        216436
#        231924
#        251715
#        263858
#        278705
#        289648
#
# Disc length: 3997 seconds
#
# Revision: 0
# Processed by: cddbd v1.5.1PL0 Copyright (c) Steve Scherf et al.
# Submitted via: ExactAudioCopy v0.95b3
#
DISCID=2b0f9b16
DTITLE=Lowell Fulson - The Crazy Cajum Recordings
DYEAR=1998
DGENRE=Blues
TTITLE0=Blood, Sweat And Tears
TTITLE1=I Want Affection Not Protection
TTITLE2=You Gonna Miss Me
TTITLE3=Funky Soul
TTITLE4=Don't Make Promises You Can't Keep
TTITLE5=Everyday Blues
TTITLE6=Blue Shadows Falling
TTITLE7=I Cried Like A Baby
TTITLE8=Rat Race
TTITLE9=Gettin' Drunk
TTITLE10=The Things I Used To Do
TTITLE11=Your Woman
TTITLE12=You Don't Know
TTITLE13=Walk On
TTITLE14=Stoop Down Baby
TTITLE15=The Sweetest Thing
TTITLE16=Black Widow Spider
TTITLE17=Mean Old World
TTITLE18=Kansas City
TTITLE19=Driftin' Blues
TTITLE20=Well Oh Well
TTITLE21=Come Back Baby
EXTD=
EXTT0=
EXTT1=
EXTT2=
EXTT3=
EXTT4=
EXTT5=
EXTT6=
EXTT7=
EXTT8=
EXTT9=
EXTT10=
EXTT11=
EXTT12=
EXTT13=
EXTT14=
EXTT15=
EXTT16=
EXTT17=
EXTT18=
EXTT19=
EXTT20=
EXTT21=
PLAYORDER=
